<?xml version="1.0" standalone="no"?><!DOCTYPE svg PUBLIC "-//W3C//DTD SVG 1.1//EN" "http://www.w3.org/Graphics/SVG/1.1/DTD/svg11.dtd"><svg t="1621685023258" class="icon" viewBox="0 0 1024 1024" version="1.1" xmlns="http://www.w3.org/2000/svg" p-id="2399" xmlns:xlink="http://www.w3.org/1999/xlink" width="200" height="200"><defs><style type="text/css"></style></defs><path d="M936.277333 1022.976H86.698667c-47.9232 0-86.766933-43.008-86.766934-95.8464V95.982933C0 43.008 38.912 0 86.698667 0h287.812266c9.352533 0 18.2272 4.096 24.234667 11.127467L519.714133 152.234667c4.164267 4.9152 9.284267 7.509333 14.472534 7.509333h402.090666c47.786667 0 86.698667 43.144533 86.698667 95.982933v93.3888a32.290133 32.290133 0 0 1 0 5.188267v572.8256c0 52.8384-38.912 95.8464-86.698667 95.8464z m22.801067-639.317333H63.965867v543.470933c0 17.339733 10.376533 32.085333 22.801066 32.085333h849.5104c12.288 0 22.801067-14.677333 22.801067-32.085333V383.658667z m0-63.965867v-63.965867c0-17.271467-10.4448-32.017067-22.801067-32.017066h-402.090666c-23.825067 0-46.6944-10.922667-63.010134-29.832534L359.765333 63.965867h-273.066666c-12.288 0-22.7328 14.609067-22.7328 32.017066v223.709867h895.112533z" p-id="2400"></path></svg>